<svg viewBox="0 0 100 120" fill="none" xmlns="http://www.w3.org/2000/svg">
  <path d="M50 2C28 2 4 15 4 15V62C4 88 30 112 50 120C70 112 96 88 96 62V15C96 15 72 2 50 2Z" fill="url(#shieldGrad)"/>
  <path d="M24 18H66L76 28V98H24V18Z" fill="white" fill-opacity="0.2"/>
  <path d="M66 18V28H76" fill="none" stroke="white" stroke-opacity="0.3" stroke-width="1.5"/>
  <rect x="32" y="30" width="22" height="2.5" rx="1.25" fill="white" fill-opacity="0.7"/>
  <rect x="32" y="37" width="30" height="2.5" rx="1.25" fill="white" fill-opacity="0.7"/>
  <rect x="32" y="44" width="16" height="2.5" rx="1.25" fill="white" fill-opacity="0.7"/>
  <circle cx="50" cy="72" r="5.5" fill="white"/>
  <circle cx="32" cy="62" r="3" fill="white"/>
  <circle cx="68" cy="62" r="3" fill="white"/>
  <circle cx="32" cy="85" r="3" fill="white"/>
  <circle cx="68" cy="85" r="3" fill="white"/>
  <circle cx="39" cy="55" r="2.5" fill="white"/>
  <circle cx="61" cy="55" r="2.5" fill="white"/>
  <circle cx="39" cy="91" r="2.5" fill="white"/>
  <circle cx="61" cy="91" r="2.5" fill="white"/>
  <line x1="50" y1="72" x2="32" y2="62" stroke="white" stroke-width="1.8"/>
  <line x1="50" y1="72" x2="68" y2="62" stroke="white" stroke-width="1.8"/>
  <line x1="50" y1="72" x2="32" y2="85" stroke="white" stroke-width="1.8"/>
  <line x1="50" y1="72" x2="68" y2="85" stroke="white" stroke-width="1.8"/>
  <line x1="50" y1="72" x2="39" y2="55" stroke="white" stroke-width="1.4"/>
  <line x1="50" y1="72" x2="61" y2="55" stroke="white" stroke-width="1.4"/>
  <line x1="50" y1="72" x2="39" y2="91" stroke="white" stroke-width="1.4"/>
  <line x1="50" y1="72" x2="61" y2="91" stroke="white" stroke-width="1.4"/>
  <defs>
    <linearGradient id="shieldGrad" x1="10" y1="2" x2="90" y2="120" gradientUnits="userSpaceOnUse">
      <stop stop-color="#3B82F6"/>
      <stop offset="1" stop-color="#1D4ED8"/>
    </linearGradient>
  </defs>
</svg>
